<?xml version="1.0" encoding="utf-8"?>
<!-- Generator: Adobe Illustrator 25.0.0, SVG Export Plug-In . SVG Version: 6.00 Build 0)  -->
<svg version="1.1" id="Layer_2" xmlns="http://www.w3.org/2000/svg" xmlns:xlink="http://www.w3.org/1999/xlink" x="0px" y="0px"
	 viewBox="0 0 32 32" style="enable-background:new 0 0 32 32;" xml:space="preserve">
<style type="text/css">
	.st0{fill:#4BA3E3;}
	.st1{fill:#FFFFFF;}
</style>
<g>
	<path class="st0" d="M26.99,32H5.01C2.24,32,0,29.76,0,26.99V5.01C0,2.24,2.24,0,5.01,0h21.97C29.76,0,32,2.24,32,5.01v21.97
		C32,29.76,29.76,32,26.99,32z"/>
</g>
<g>
	<path d="M11.68,19.51v7.87H6.21V3.83h8.31c1.66,0,3.08,0.2,4.27,0.59c1.19,0.39,2.17,0.94,2.94,1.62c0.77,0.69,1.34,1.5,1.71,2.44
		c0.37,0.94,0.55,1.95,0.55,3.04c0,1.17-0.19,2.25-0.57,3.23s-0.95,1.82-1.73,2.52c-0.78,0.7-1.76,1.25-2.95,1.64
		c-1.19,0.39-2.6,0.59-4.23,0.59H11.68z M11.68,15.39h2.84c1.42,0,2.45-0.34,3.07-1.02c0.62-0.68,0.94-1.63,0.94-2.84
		c0-0.54-0.08-1.03-0.24-1.47c-0.16-0.44-0.41-0.82-0.73-1.14s-0.74-0.56-1.24-0.74c-0.5-0.17-1.1-0.26-1.79-0.26h-2.84V15.39z"/>
	<path class="st1" d="M21.34,24.84c0-0.39,0.07-0.75,0.22-1.08c0.15-0.33,0.34-0.62,0.6-0.87c0.25-0.25,0.55-0.44,0.9-0.59
		s0.72-0.22,1.13-0.22c0.4,0,0.77,0.07,1.12,0.22s0.65,0.34,0.91,0.59s0.46,0.54,0.61,0.87s0.22,0.69,0.22,1.08
		c0,0.39-0.07,0.75-0.22,1.09c-0.15,0.34-0.35,0.63-0.61,0.88s-0.56,0.44-0.91,0.58c-0.34,0.14-0.72,0.21-1.12,0.21
		c-0.41,0-0.79-0.07-1.13-0.21c-0.34-0.14-0.64-0.33-0.9-0.58c-0.25-0.25-0.45-0.54-0.6-0.88C21.42,25.6,21.34,25.23,21.34,24.84z"
		/>
</g>
</svg>
